<?xml version="1.0" encoding="UTF-8" standalone="no"?>
<!-- Created with Inkscape (http://www.inkscape.org/) -->

<svg
   xmlns:dc="http://purl.org/dc/elements/1.1/"
   xmlns:cc="http://creativecommons.org/ns#"
   xmlns:rdf="http://www.w3.org/1999/02/22-rdf-syntax-ns#"
   xmlns:svg="http://www.w3.org/2000/svg"
   xmlns="http://www.w3.org/2000/svg"
   xmlns:xlink="http://www.w3.org/1999/xlink"
   xmlns:sodipodi="http://sodipodi.sourceforge.net/DTD/sodipodi-0.dtd"
   xmlns:inkscape="http://www.inkscape.org/namespaces/inkscape"
   width="454"
   height="454"
   id="svg2"
   version="1.1"
   inkscape:version="0.47 r22583"
   sodipodi:docname="guitar.svg"
   inkscape:export-filename="/home/peter/guitar.png"
   inkscape:export-xdpi="14.195531"
   inkscape:export-ydpi="14.195531">
  <defs
     id="defs4">
    <linearGradient
       id="linearGradient6128">
      <stop
         style="stop-color:#00006a;stop-opacity:1"
         offset="0"
         id="stop6130" />
      <stop
         style="stop-color:#000000;stop-opacity:1"
         offset="1"
         id="stop6132" />
    </linearGradient>
    <linearGradient
       inkscape:collect="always"
       id="linearGradient6107">
      <stop
         style="stop-color:#ff0000;stop-opacity:1;"
         offset="0"
         id="stop6109" />
      <stop
         style="stop-color:#ffff00;stop-opacity:1"
         offset="1"
         id="stop6111" />
    </linearGradient>
    <linearGradient
       inkscape:collect="always"
       id="linearGradient6099">
      <stop
         style="stop-color:#000000;stop-opacity:1"
         offset="0"
         id="stop6101" />
      <stop
         style="stop-color:#ff0000;stop-opacity:1"
         offset="1"
         id="stop6103" />
    </linearGradient>
    <linearGradient
       id="linearGradient6081">
      <stop
         style="stop-color:#000000;stop-opacity:1;"
         offset="0"
         id="stop6083" />
      <stop
         style="stop-color:#780000;stop-opacity:0;"
         offset="1"
         id="stop6085" />
    </linearGradient>
    <inkscape:perspective
       sodipodi:type="inkscape:persp3d"
       inkscape:vp_x="0 : 526.18109 : 1"
       inkscape:vp_y="0 : 1000 : 0"
       inkscape:vp_z="744.09448 : 526.18109 : 1"
       inkscape:persp3d-origin="372.04724 : 350.78739 : 1"
       id="perspective10" />
    <inkscape:perspective
       id="perspective5143"
       inkscape:persp3d-origin="0.5 : 0.33333333 : 1"
       inkscape:vp_z="1 : 0.5 : 1"
       inkscape:vp_y="0 : 1000 : 0"
       inkscape:vp_x="0 : 0.5 : 1"
       sodipodi:type="inkscape:persp3d" />
    <linearGradient
       inkscape:collect="always"
       xlink:href="#linearGradient6099"
       id="linearGradient6105"
       x1="341.39078"
       y1="667.22192"
       x2="341.39078"
       y2="553.09052"
       gradientUnits="userSpaceOnUse"
       gradientTransform="translate(-128.72771,-335.40371)" />
    <linearGradient
       inkscape:collect="always"
       xlink:href="#linearGradient6107"
       id="linearGradient6113"
       x1="259.62427"
       y1="787.70239"
       x2="265.302"
       y2="446.93872"
       gradientUnits="userSpaceOnUse" />
    <linearGradient
       inkscape:collect="always"
       xlink:href="#linearGradient6128"
       id="linearGradient6138"
       x1="281.79904"
       y1="-0.89719754"
       x2="281.79904"
       y2="339.21924"
       gradientUnits="userSpaceOnUse" />
  </defs>
  <sodipodi:namedview
     id="base"
     pagecolor="#ffffff"
     bordercolor="#666666"
     borderopacity="1.0"
     inkscape:pageopacity="0.0"
     inkscape:pageshadow="2"
     inkscape:zoom="0.79820428"
     inkscape:cx="317.79842"
     inkscape:cy="252.2978"
     inkscape:document-units="px"
     inkscape:current-layer="layer4"
     showgrid="false"
     inkscape:snap-bbox="true"
     inkscape:window-width="839"
     inkscape:window-height="688"
     inkscape:window-x="168"
     inkscape:window-y="24"
     inkscape:window-maximized="0" />
  <metadata
     id="metadata7">
    <rdf:RDF>
      <cc:Work
         rdf:about="">
        <dc:format>image/svg+xml</dc:format>
        <dc:type
           rdf:resource="http://purl.org/dc/dcmitype/StillImage" />
        <dc:title></dc:title>
      </cc:Work>
    </rdf:RDF>
  </metadata>
  <g
     inkscape:label="Layer 1"
     inkscape:groupmode="layer"
     id="layer1"
     transform="translate(-137.95711,-336.3524)"
     style="display:inline" />
  <g
     inkscape:groupmode="layer"
     id="layer2"
     inkscape:label="Layer 2"
     style="display:inline"
     transform="translate(-1.7125282,1.5569265)">
    <path
       transform="translate(-136.24458,-337.90933)"
       style="fill:url(#linearGradient6113);fill-opacity:1;stroke:#ffffff;stroke-width:6.53399992;stroke-miterlimit:4;stroke-opacity:1;stroke-dasharray:none;display:inline"
       d="m 438.82455,521.46178 c -21.36699,-20.34078 -20.5644,-20.57424 -38.26731,-36.32389 -25.29177,-22.5012 -72.46102,-54.17337 -99.81663,-27.26127 -2.62408,3.56972 -7.47887,11.35392 -10.78842,17.29819 -13.04681,23.43335 -23.04593,28.96197 -71.43176,39.49532 -38.40918,8.36146 -50.27243,13.46285 -63.31306,27.22554 -8.25709,8.71423 -9.13335,10.16318 -11.51178,19.03479 -5.63466,21.01741 -1.64506,43.81746 12.07618,69.01369 8.97458,16.47998 28.03686,41.05512 50.2681,64.80582 15.09196,16.12343 48.76166,46.46119 65.02671,58.59168 35.94843,26.81037 66.52848,37.57361 92.45987,32.54302 27.22825,-5.28217 44.10889,-27.37089 50.89871,-66.6021 9.74356,-56.29784 14.29124,-68.36063 30.06823,-79.75649 4.34221,-3.13642 11.48462,-7.32972 15.87202,-9.31845 6.1288,-2.77807 9.97333,-5.7125 16.59264,-12.66472 8.21094,-8.62392 8.64944,-9.39369 9.33709,-16.39257 0.8108,-8.25204 -1.99018,-19.42491 -7.63718,-30.46408 -9.86901,-16.616 -23.28573,-32.81104 -39.83341,-49.22448 z"
       id="path6066" />
  </g>
  <g
     inkscape:groupmode="layer"
     id="layer3"
     inkscape:label="Layer3"
     style="display:inline"
     transform="translate(-1.7125282,1.5569265)">
    <path
       style="fill:url(#linearGradient6105);fill-opacity:1;stroke:#fff9f9;stroke-width:4.23400021;stroke-miterlimit:4;stroke-opacity:1;stroke-dasharray:none;display:inline"
       d="m 252.28489,323.43586 c 18.89774,-4.00108 41.40859,-19.64276 45.60043,-42.34794 2.55975,-13.89285 4.50979,-45.35317 -6.25591,-62.7841 17.98797,43.01068 -11.86556,83.02499 -62.01604,62.85194 -11.68902,10.42835 -6.00191,3.14751 -16.3333,15.18481 17.92805,18.40406 21.77216,29.73464 39.00482,27.09529 z"
       id="path5151"
       sodipodi:nodetypes="cccccc" />
  </g>
  <g
     inkscape:groupmode="layer"
     id="layer4"
     inkscape:label="Layer 4"
     style="display:inline"
     transform="translate(-1.7125282,1.5569265)">
    <path
       style="fill:url(#linearGradient6138);fill-opacity:1;stroke:#ffffff;stroke-width:5.57440376000000004;stroke-miterlimit:4;stroke-opacity:1;stroke-dasharray:none;display:inline"
       d="M 384.66582,92.415028 279.30435,212.02444 c 14.95176,24.65854 7.7264,84.14477 -57.75192,53.0877 -3.72679,5.17214 -20.70275,21.30557 -27.60821,31.7401 l 27.57757,27.25354 -11.86177,12.32627 c -7.88479,-6.69053 -14.34479,-16.47944 -24.35053,-20.04548 l -7.24734,-0.26245 c -13.84588,-8.41289 -38.44552,-31.16359 -45.80694,-44.30147 -1.06416,-2.55632 2.88002,-2.69737 -0.76906,-9.69944 l -20.30253,-20.43102 11.5916,-12.70026 28.43461,27.20675 31.8911,-27.91019 c -20.56259,-30.28684 1.67329,-79.75327 56.23904,-55.02875 42.67866,-39.53595 103.12614,-98.274704 113.44471,-106.912185 4.75289,-2.853868 1.624,-9.246586 5.37495,-16.591822 3.43502,-6.726568 1.48837,-7.260285 8.81603,-12.940905 10.66702,-5.198575 18.028,1.009268 26.84001,-22.143332 5.82806,-11.0072305 13.1243,-12.1865517 16.81215,-12.7494358 20.52721,-0.7749643 37.14663,12.5893438 41.78491,30.5403028 0.0801,5.055338 -2.55515,18.169144 -12.38518,20.981682 -7.81937,3.139494 -18.67956,4.731042 -24.47373,23.386576 -4.552,12.32406 -13.21996,15.846065 -16.62758,15.390825 l -14.26042,0.193582 z"
       id="path6068"
       inkscape:transform-center-x="48.859673"
       inkscape:transform-center-y="62.640606" />
  </g>
</svg>
